<?xml version="1.0" encoding="UTF-8"?>
<svg version="1.1" viewBox="0 0 1024 1024" width="1024" height="1024" xmlns="http://www.w3.org/2000/svg">
<path transform="translate(0)" d="m0 0h1024v1024h-1024z" fill="#C7C8B7"/>
<path transform="translate(452,149)" d="m0 0 1 2 2 1 2 5 5 4 3 1 1-4 3 6 1-3 3-1 4-1 2 1 1 2 7-1v2l4 2 5-5 5 1 1-2h2v-2h3v2h2v-2l3-3 3-5h5l-4 1 6 4 1 4 5-1 1 5h2v3l3-1 3 3 1 2 4-1h2l3-1v2l4-1h8l3 1 6-4 8 1h3 7l7 2 1-3 6 1 3 3 12-1 9 1 5 2h7l1-5h16l17 2 5 3 3 3v2l2 1v2l-4 1 1 4v2h2v-2h4l1-6 4 2 1 3h2v-2h2v-2h2l1-2h29v353l-4 16-5 14-8 14-8 12-13 15-7 8-9 8-8 5h-2v2l6-4 4 1 1-4 5-2v-2l7-2 7-3v5 2l1 3h-2l2 4v6l13-9 11-4 5-1h15l15 4 11 6 11 10 7 10 4 10 1 4v16l-7 21-8 10-7 7-10 6-13 4h-20l-10-3-7-4-5 1-1-1-4 1-9 5-8-4-5-4 1 8-232-1-1-14-3 1v2l-5-1-3-1v7h-2v2h-6l-1-1v-8l1-6 10-1 1-3-9-3-2-4h2l-1-4h-2v-14l1-7v-14l2-2 10-2 3-3 5-1v-30l14-1h133l18-2 15-4 12-5 11-6 16-12 10-10 11-14 8-13 5-14 1-3v-231l-1-46-4-1-1-3-3 2-1-1-3 2 1-5-4 3-5-2v-11-1-2h-2v240l-2 13-5 12-6 10-9 11-4 4v5l-3 2v4h-2l-1 5-2 5h-2v2l-5 4-3 4h-2v3l-5 4h-2l-1 3-3 3h-2l1 7-10 3-32 6-37 2-11 1h-37l-12-1-33-1v-33l1-3-2-1v-29l1-1 24-1 123-1 12-3 10-5 11-8 9-10 6-10 4-11 1-61v-173l-5-1v-2l4-1-7-2v-3l-2-1-1 3-4 5-2 7-4 5h-2v3l-3 1-1 6 1 3-1 4h-2l2 7 2 4 1 3 2 1v2l2 1 1 6v8h-2l-1 3h-5l-1-4-3-1v-4h-3v-3l-2-1v-5l-2-3 2-1-3-1v-2h5l-1-1-6-2-4-4-3-5-5-4-2-1-4-4-2-1v-2l-5-2-6-3-2-3h2l-7-7 1-4h2l1-8 2-7 9-2h-194l2 1 3 11h4l1 3-2 1 3 3-1 13-1 2-13 3h3l13-3 19-2 61-1h38l17 3 12 4 16 8 12 9 13 12 11 14 8 14 5 10 4 12 4 16v32l-3 15-7 19-9 16-7 10-9 11-12 11-15 9-16 7-17 4-11 1h-26l-65-1-1 242-28 1-1-29v-122l1-131h38l25 3 12 1h49l14-3 16-6 12-7 8-7 10-15 6-15 4-16 1-7v-13l-5-21-8-16-7-9-9-10-11-8-17-9-13-4-5-1h-68l-2 2h-3l-2 5-3 3-6 3-2-1-1-6-6 2-1 3v-2h-2l-1 3v-2l-4 1-1 2-4-1v2l-4 1-6 2-2 3h-2l-4 2v2l-1 1 4 2h109l15 2 13 5 10 6 10 10 7 10 5 12 2 8v9l-3 10-9 16-11 12-9 6-14 4-7 1h-28l-16-1-96-1v10l-2 7h-8l-8 2-3 1 20 2 1 22v264l-21 1h-58l-1-3h-2l-1-9-1-1v-14l-2-1h2l1-5v-3-9l1-3h-2v-4l2-1 2-10 1-3h-2l-1-5-2-4-2-6 6-1v-12l-1-11-2-7v-4l1-6-1-2 1-2-3-1 2-1-2-5-3-3 2-2-1-6-4-4-4-7-4-2 1 29-1 3 1 4v29l3 2h-2l-2 11 1 54 1 3-1 1-1 21h-30l-1-382v-73l3-3v-8l-5-6 1-5-2-9v-17l2-8v-8h2l-2-6 3-1v-2h-2l2-4 2-5h2v-4h2l2-4 4-3 10-1 1 1 15 1h28l4-1 13 4 2 1 10-2 3-4h2l1-4 4-1v-2l13-2h5l4-2v5h2l1 2 8-1 1-4 3 1 2-4 6-2 2-4 5 2v-2l5 1-2 2 2 2-2 3 4 2 1-2 5-1 2 6-1 2 3-2h9l6-5 1 2h3l1-6-2-1 3-2 4-4h1v5l2-4h2l3 3 4-4z" fill="#E4E7D4"/>
<path transform="translate(475,242)" d="m0 0h38l17 3 12 4 16 8 12 9 13 12 11 14 8 14 5 10 4 12 4 16v32l-3 15-7 19-9 16-7 10-9 11-12 11-15 9-16 7-17 4-11 1h-26l-65-1-1 242-28 1-1-29v-122l1-131h38l25 3 12 1h49l14-3 16-6 12-7 8-7 10-15 6-15 4-16 1-7v-13l-5-21-8-16-7-9-9-10-11-8-17-9-13-4-5-1h-68l-2 2h-3l-2 5-3 3-6 3-2-1-1-6-6 2-1 3v-2h-2l-1 3v-2l-4 1-1 2-4-1v2l-4 1-6 2-2 3h-2l-4 2v2l-1 1 4 2h109l15 2 13 5 10 6 10 10 7 10 5 12 2 8v9l-3 10-9 16-11 12-9 6-14 4-7 1h-28l-16-1-96-1v10l-2 7h-8l-8 2-3 1 20 2 1 22v264l-21 1h-57v-410l1-4 17-1 9-1v-8l3-3 2-5h2l2-4 7-1h4l1-2 2 2-1 4 1 1 4-8 8-10 7-8 15-10 13-6 10-2 19-2z" fill="#C6C7B7"/>
<path transform="translate(695,177)" d="m0 0h30v353l-4 16-5 14-8 14-8 12-13 15-7 8-9 8-8 5h-2v2l6-4 4 1 1-4 5-2v-2l7-2 7-3v5 2l1 3h-2l2 4v6l13-9 11-4 5-1h15l15 4 11 6 11 10 7 10 4 10 1 4v16l-7 21-8 10-7 7-10 6-13 4h-20l-10-3-7-4-5 1-1-1-4 1-9 5-8-4-5-4 1 8-232-1-1-14-3 1v2l-5-1-3-1v7h-2v2h-6l-1-1v-8l1-6 10-1 1-3-9-3-2-4h2l-1-4h-2v-14l1-7v-14l2-2 10-2 3-3 5-1v-30l14-1h133l18-2 15-4 12-5 11-6 16-12 10-10 11-14 8-13 5-14 1-3z" fill="#C8C9B8"/>
<path transform="translate(375,210)" d="m0 0h203l-1 2-9 1-3 15-2 1 1 4 5 4 2 5h2v2l5 2 2 1v2l3 1v2l4 1 3 2 6 6 3 5 2 2 7 1-1 3-5-1v2l4 1-2 2 2 2v5l1 4h3l1 4 5 4h3l1-2h2l-1-3v-8l-2-6-3-1-2-6-2-4v-4h2l-1-8 2-10 1 4h2v-3l5-5 2-7 3-3 1-5 6 1-2 1v2h7v2l-4 1 1 2h5v174l-1 61-5 12-6 10-10 11-10 7-10 5-12 3-123 1-24 1-1 29h11v1l-7 1-2 2v14l-1 19h33l12 1h37l28-2 20-1 37-7 5-1-1-7h2l1-3 5-4h2l1-3h2v-3h2l1-3 5-5h2v-2h2l3-10h2l-1-5 4-1-1-5 7-7 6-8 6-10 5-12 2-13 1-240h2v2h2l-1 2v10h5l3-1v4l1-2 5-1 3 3-1 1h4l1 47v231l-4 12-7 14-10 13-12 13-9 8-15 10-15 7-9 3-16 3-11 1h-147l1 19v11l-7 3-2 2-10 2-1 5v10l-2 21h2l1 4v4l9 1v5l-5 1h-6v14l6 1v-2h2v-7l5 1 3 1v-2l2-1 1-18h1v22l-2 4-3 2-6 2-9 2-2 1-1-2v-239l1-2h91l17-2 16-5 16-8 11-7 11-10 9-11 6-9 9-16 7-19 3-15v-32l-6-22-5-13-8-14-9-12-11-12-14-11-12-7-15-6-13-3-8-1h-38l-61 1-25 3-10 3v-2l8-3h5v-8l1-7-3-3 3-1-5-3-3-8v-3l-10-1z" fill="#E4E7D4"/>
<path transform="translate(1017,744)" d="m0 0h2l1 2h4v278h-299l-5-1-1-7-4-4v-1l7-1 2-3 1-1 1-3 6 1 1-2 2 1v2h2v-2h2l1-3 2 1 1-3 2 1 1-1 3-1 5 4 1-2 4-2v-3l4-1 3 2-3 1 6-1 1-9 4 1v-2h2v-2l3-1-2-2 2-4 2-1v-2l3 1 1-2h-2l1-2h2l-3-2 1-2 2 1-1-4h6l-2-5h5l2-3 1 5v-2l1-5 4 2v-2l3-2v-2l3 1 1 5 4-6h2l1-5 3-1 2 3h5v-3l1-2 2 1 1-4h2l1 2v-3l-1-3 5 1 4-1 1-2 2 1v-3l4-3v-1l-1-3-6-2 3-1 1-2h5l1 5h3l1 1 3-1-1-3 5-1 1 2 5 1 3 1v2l2-1 5-4 4-1v-3l3-3h2v-2h2l2-7h-2l1-5h2l1-2h2v3h2l1-4 2-6 4 1 3-4 4-2-1-2 5-3 1-5h-3v-2l4-1v4h2v-6l1-5 5-2v2l4-1-1-6 2-3 1-3 6 2v3l2-1 1-5-1-4 2-3h4l1-2h2l1-2 2-3 5-1-1-6 4-2h2v2h3l-3-6 4-4 5-3 2-4 5-1 1 3 5-1 2-5h2v2l2-1-2-3h3l-5-2 1-3h3v-2l-2-1-1-2 2-4-2-5-1-5-2-1-1-5 4-1 1-7 2 1v3l6-1-3-2-2-1v-2h2v-2h-3l-1 2-2-4 2-3-1-3 8-1 2 1 1-2 5-5v-3l9-1z" fill="#A1A8A1"/>
<path transform="translate(475,242)" d="m0 0h38l17 3 12 4 16 8 12 9 13 12 11 14 8 14 5 10 4 12 4 16v32l-3 15-7 19-9 16-7 10-9 11-12 11-15 9-16 7-17 4-11 1h-26l-65-1-1 242-28 1-1-29v-122l1-131h38l25 3 12 1h49l14-3 16-6 12-7 8-7 10-15 6-15 4-16 1-7v-13l-5-21-8-16-7-9-9-10-11-8-17-9-13-4-5-1h-103l-10 2-12 8-10 9-6 8-2 5-1 7 1 37 2 1h-31v-60l4-10 8-11 8-9 15-10 13-6 10-2 19-2z" fill="#0D1E27"/>
<path transform="translate(507,833)" d="m0 0 2 1 8 2 5-2 1 2 1-1h5 3l3-1 1 2 4-1 4 1v-1h17l7 1 6 1 5-1 7 1 4 1 2-1v2h9 4l1 2 5-3 6 2 10-2h6l1 2 3-1 6 2h4 9l3 3 8-1 7 2 5-1 10 4 2 1v-2l4 1 4 3 5-2v2h2l1-2v3l11-1 4 3 1-2 7 3h2 8l9 5 9 4 1 2 3 1 1 1 4 1 3 2 3-1v6l-2 5-3 3v3l2 1h-3l-1 2-6 2-2 1-7-1-1 2-3 1-3-1-5 2-4-2-4 1-5 1-2 2-3-3-5 2h-4-3l-2-3-6 2-4 1-1 3h-6-4-3l-11 1-2 1-2-1v-3l-5 6h-4v2h-4-4l-3-2-2 1-7 1-7-2-7-1h-3l-2-1-2 2-2-1-10 1-3-1-2 1v-2l-4-1v4h-5l-4-1-5 1h-4l-3-1-2 2v-2l-4 1-2-1-1 2h-7l-2 2-3-2h-2-7l-6-1-2 3v-4l-7-1-1 3-3 1-2-1-1 2-1-3-6 1-2-1v2h-2v-2l-3 1-2 2-4-1-11 1-8-1-3-1h-7l-1-3h-2v2l-6 1-1-3-7 1-4 1-5-2h-3l-3 2-4-1-2 2-4-1-3-1-4 2-10-2h-3l-7 1-4-1-1-1v2l-3-1-1-1-3 1-1-3h-9-4l-7-1-2 1v-2h-5l-1 2h-3l-1-4-4 2-4-2-4-1-7 1-2-1v-2l-6-2-2 1v-2l-6 1-3-3-7 1-1-2-2-1-3-3-4 3v-5h-7l-1 2-1-5 2-2v-4l2-3h2l-1-4h3 2l4-1 3 1v-2l-2-1 2-1v-2l8-1 3-3h3l5-2 4-2 7-1 5 1v-2h4 8v2l5-1 1-2 2 1v-2l12-2 5 1v-2l6-2 5 1 2-2 10 1 5-1v-2l5 2 5-2 20-2h13l7-2h4 3l1 2 13-1 6-1h6l2 1 1-2 4 1 1-2v2h2z" fill="#A1A8A1"/>
<path transform="translate(669,177)" d="m0 0h2v296l-2 13-5 12-6 10-9 11-4 4v5l-3 2v4h-2l-1 5-2 5h-2v2l-5 4-3 4h-2v3l-5 4h-2l-1 3-3 3h-2l1 7-10 3-32 6-37 2-11 1h-37l-12-1-33-1v-33l1-3-2-1v-29l1-1 24-1 123-1 12-3 10-5 11-8 9-10 6-10 4-11 1-61 1-229z" fill="#0D1F27"/>
<path transform="translate(10,833)" d="m0 0h2l1 3-1 9 4-1-1-2 6-1 2 3-1 5 2 5-2 1-1 4h-2v4h-2l-1-6-5 5v3 2l3-3h3v2h-2l4 6 1-2v3l-3 1 1 2-3 1 2 3-4 2h4l3 2 3-3v-2h7l1 3 6-1 1 3-6-1 2 1 6 1v2l-2 2 1-1 5-3v4l-5 3 1 3 3 2h-2v2h2v4l6-1 1 2 2-2 6 4 4 5 1 2h5v2l3 1 6-1 3 1 2-1v2h8v4l3 1v2h-2v2h2l2-2 3 1-1 5h-2v2l4-2v3l4 2v3l3 1-2 4v2h2v2h2l1 2h2l2 2 4-3h2v3h3l1-4h2v-2h2l1-2 6 2 1 3 2 1v6h2v-3h2v2h2l-1 7 1-2h2v2l5-3-2-2 2-1 5 2 1 4 4 1 1-3 3-3 2 4-3 5-5-1 1 3 2 2-7 2-1 2h3l-1-2h7l-1 5h-3l-1 5h2l1-3 9 2 1-2 1 6h3l1-2 2 1v1l4-3 12 2 1-4-2-4 2-2 5-1 1-2h2v-2l8 2-1 3h2l2 5-4 1h5l1 6-3 2v6l1 2h-2v2l6 1 3-1 3 3-1 2h-1l3 3 1-3v2h2l-1-4h2l3 4-2 1h4 7l1 3 4 1v-2h4v2l6 2 3-1 1-2 2 5-1 4-3 1v-2l-3 1v-2h-2l-1 5 2 4h-253v-104l1-1v-78l6-2 3-2z" fill="#A1A8A1"/>
<path transform="translate(695,177)" d="m0 0h30v353l-4 16-5 14-8 14-8 12-13 15-7 8-9 8-15 9-23 11-11 4-6 1-18 1h-157l-1-11v-19l14-1h133l18-2 15-4 12-5 11-6 16-12 10-10 11-14 8-13 5-14 1-3z" fill="#0D1F28"/>
<path transform="translate(406,275)" d="m0 0h103l15 4 16 8 10 6 12 11 8 10 9 16 5 19 1 5v13l-3 17-6 16-5 10-9 12-10 8-16 8-16 5-7 1h-49l-30-3-7-1-38-1v131l-1 53h-1l-1-18h-9l1 2h-3v2h-3v2l-2 1-1 4h-2l1 7-2 2-1-191h-13l-13-1v-1h6l1-2 11-2h7l2-16h96l16 1h28l14-3 11-4 10-9 7-9 8-15 2-8v-9l-4-14-5-9-8-10-7-7-16-8-10-3-11-1h-110l-6-3 4-1-1-3 7-3 2-2 6-2 2-3v3h2v-2l5-1 8-3 6-3 1 1v6l5-1 3-4 1 2 4-7 3-1h-36z" fill="#E3E7D4"/>
<path transform="translate(749,177)" d="m0 0h31l-1 439-8-6-13-6-8-2-1-4z" fill="#0D1F28"/>
<path transform="translate(388,303)" d="m0 0h109l15 2 13 5 10 6 10 10 7 10 5 12 2 8v9l-3 10-9 16-11 12-9 6-14 4-7 1h-28l-16-1h-119l-5-3 1-27 1-1h38l10-1h118l11-4 7-6 3-8-1-9-6-8-8-7-11-4-4-1h-79l-2 20-27-1-2-23z" fill="#0C1E27"/>
<path transform="translate(236,273)" d="m0 0 7 2 13 10 8 5 1 1v430h-28l-1-382z" fill="#0C1E27"/>
<path transform="translate(306,306)" d="m0 0h9l1 82v332l-28 1v-410l1-4z" fill="#0C1E27"/>
<path transform="translate(721,614)" d="m0 0h15l15 4 11 6 11 10 7 10 4 10 1 4v16l-7 21-8 10-7 7-10 6-13 4h-20l-10-3-15-9-10-10-5-8-4-14v-21l4-11 7-12 10-10 10-6 9-3z" fill="#0D1F28"/>
<path transform="translate(279,175)" d="m0 0h15l10 2 17 8 7 6 8 13 3 9 1 7v10l-3 11-4 10-5 6-6 8-9 8-13 5-9 2h-11l-13-4-10-5-10-9-8-10-5-11-1-6v-17l2-8 5-10 9-10 7-6 14-7z" fill="#0D1F27"/>
<path transform="translate(725,176)" d="m0 0h1l2 10 2 4-1 6h-1l-1 10v137l2 2v5l-2 2v16h3l4 15h2l3-5h3l1 10 3 3v-13l1-1v-196l1-5h1l1 426 8 1 14 7 8 7-1 11-2 9 5 8 3 6 2 13-1 13-3 9h-1l1-8 1-4v-16l-4-12-6-9-7-8-10-7-12-5-9-2h-15l-11 3-10 5-6 5h-2l-2-10v-3l-1-2h2l-1-4-7 4h-6v2l-4 3-2 3-5 1-5 2v-2l11-7 10-9 13-15 6-8 7-11 8-14 7-22 1-6z" fill="#C8C9B8"/>
<path transform="translate(354,178)" d="m0 0h265v32h-236l-24-1-4-8-6-16-3-6z" fill="#0C1E27"/>
<path transform="translate(671,233)" d="m0 0h2v2h2l-1 2v10h5l3-1v4l1-2 5-1 3 3-1 1h4l1 47v231l-4 12-7 14-10 13-12 13-9 8-12 8-2-1 8-6-1-3 4-7-1-3h2l1-7 5-11 3-2 3-6 3-4h2l2-6 2-2-1-5h2l1-9h4v-6l1-2 1-9v-2l-6-4-4 10-3 3-2 5-1 11h-2l1 7-2 4-5 1-4-2 1-9v-13l-2-3 6-8 6-10 5-12 2-13z" fill="#E4E7D5"/>
<path transform="translate(338,433)" d="m0 0h14l13 1 1 22v264l-28 1-1-21v-265z" fill="#0C1E27"/>
<path transform="translate(519,850)" d="m0 0 10 2 7-1 5 1 3 1 6-1 9 2 11 1h3l2 2 5-1 2-1v2h11l1 2h6l3-1v2l5 2 2-3 5 1 2-1 1 2 4 1h3l8 1 2-1 1 2 4 1 3-1 5 3h2v2l3 1-2 1 4 3-4 1-3-2-2 4v-2h-2v2l-6 1-2 2v-3l-1 2-10 2-2-2v3l-3 1-3-1-3 1h-3l-9-1-4-1-1 5-5-2-1 2h-3l-2-2-4 1-1 2-5-1-3 1-5-1-1 1h-7-3-6l-5-1-7 2-10 1v-2l-7 1-4-1-2 3-4-1-6 2-2-2h-6l-4-2v2l-6 1h-3l-5-2-1 2-5-1-11-1-1 2-5-3v-2l-5 3-5-2h-4v-2l-6 2h-5l-1-2h-7l-9-2-2 2-2-3-2 1-5-4-3 1-4-1-2 2-1-4-2-2-2 1-2-5h3l2-2 1 2 1-5 2 1-1 2 6-1h2l2-4 4 1 1-1 7-2h2v2h2l-1-3 2-1 3 1 1-3 2-2 5 1 3 2 2 1v-2l7-1 9-3v3l4-1 2 1 1-3h5l5 1 4-1 1 2 2-2 3 1 2-1 2 1 1-2 3 2 1-2h6l4 2 3-1 1-2 4 1 1-1 6 1h3z" fill="#7F8A8B"/>
<path transform="translate(440,689)" d="m0 0 222 1 3 2 2 11 5 15v3l-232-1z" fill="#0C1E27"/>
<path transform="translate(643,524)" d="m0 0 2 1v3l-3 2v4h-2l-1 5-2 5h-2v2l-5 4-3 4h-2v3l-5 4h-2l-1 3-3 3h-2l1 7-10 3-32 6-37 2-11 1h-37l-12-1-33-1v-33l1-3 6-1v-1h140l13-2 16-5 16-8 8-5z" fill="#69797D"/>
<path transform="translate(529,844)" d="m0 0 2 1-1 2 7-3v2l6-1v2l6-1 6 2 2-1 1 2 2-2 7 1 5 1 7-1 1 2 9 1 1-2 1 2h6l1 2 3-2v2h2v-2l2 1-1 2 5-2v2l5-2 3 2 1-2 2 1 4 1 4-1 7 1 2 3 1-2h3l5 1h4v2l7-1 4 3 5-1v2l5-1 7 1 5 1 9 4 4 2 2 4 2 2h-5l-2 4-7 4h-7-1l-3 1-5 2h-4v-2h-2l-1 3-7-1-3 3-9-1h-3l-4-1-4 2-2-1-1 2h-15l-7 2-5 1v-2l-3 1h-3l-5 1h-4l-5 1-1-1h-7l-2-1v2l-4 1-7-2-6 2-1-2-3 1-5-1-1 2-5-2-3 2h-4-3l-3-1-16 1-3 1-2-1-8 1-7-1-5 2-2-2-3 2-1-2-6 1-5-2-2 1-3-1-5 1-8-3-3-1v2h-7l-1-2-4 1h-7-2l-4-1-5 1-4-2-10-1-4 1-2-2h-4v-3l-5 2-4-1-3-1-1 3-1-3h-3l-3-1h-5l1-2-2-1v2l-5-1-2-3 1-2-4 1 2-5-3-1v-2l4-1h3l1-2 5-1 2-3 5-1 1 2 7-4 2 2 4-2 5 1 1-3h3l5-1 3-1h2l2-1 7 1 3-4h9l7-1h4l1-2 5 1h4 2v-2h2v2l5-1h1l2-1v2l6-1 2 1v-3l6 1h3l3-1 9 1 5-1 2 1 2-2 5 1h4l5 1 5-1h3l3 1zm-10 6v2h-7l-2-1-1 1-4-1-2 2-3 1-4-2h-6v2l-4-2v2l-3-1-3 1-2-1-1 2-1-2-4 1-2-1h-3-5l-1 3-3-1-3 1-1-3-8 3-7 1v2l-5-2-4-1-2-1-2 2v3l-4-1-1 2 1 2h-2l-1-2-7 1-1 3-1-2-5 1-2 4-5-1-2 1 1-3h-2l-1 5-2-2-2 2h-2l2 5 2-1 2 2 2 4 1-2 5 1h3l5 3h2l2 2 1-2 11 2h6l1 2h6l4-2v2h5l5 2 4-3 1 2 5 3v-2l15 1 2 1v-2l5 2h3l6-1v-2l5 2h5l3 2 6-2 4 1 2-3 4 1 6-1 1 2h5l5-1 9-2 7 1 2-1 2 1h7l4-1 3 1 3-1 4 1 1-2 4-1 2 3 4-1v-2l5 2 1-5 11 2 4-1 2 1 4-1 2 1 2-1 1-3 2 2 9-2 1-2 1 3 2-2 5-1v-2h2l1 2 2-4 3 2 3-2-4-2 2-1-3-1-1-2-5-2-2-1h-3-3l-2-2-3 1-6-1h-3l-4-1-2-2-5 1-2-1-1 3-5-2v-2l-9 1-2-2h-10l-1-2-2 2h-4l-2-2h-3l-11-1-6-1-4-1-6 1-4-1-6-1-4 1-8-1z" fill="#8B9797"/>
<path transform="translate(423,333)" d="m0 0h74l13 4 8 6 8 9 2 6-1 9-4 6-6 5-11 4h-40l-26-1 4-2h13v-4l-5-4-1-6-4-2v2l-9 2-5 2h-3l-1 4-7 2h-6v3l-8 2h-10l-5-1v-1l6-1-1-4h-2l2-9 2-1 8 2 1 2 3 1v2h8v-5l1-4-1-5-28-1v-1h24v-11l2-9z" fill="#E4E7D4"/>
<path transform="translate(399,276)" d="m0 0h42l-2 2h-3l-2 5-3 3-6 3-2-1-1-6-6 2-1 3v-2h-2l-1 3v-2l-4 1-1 2-4-1v2l-4 1-6 2-2 3h-2l-4 2v2l-1 1 4 3v27l1 12v10h25l3 2 3 1v2l3 1-2 1 2 5h-3v2l3 1h-3v2l-4 1-4-1v-2l-6-1-1-2-6-1-2 7-1 2h2l1 3 5 1v1l-5 1h11l4-2 2 1v-3l13-3 1-3 10-4h7v-2l5 2 2 7 6 5v3h-16l-4 1-52 1-10 1h-33l-6-1 1-2-6-4-1-3 1-8 3-3h2v-2h2v-4l-2-2 21-1 6-1-1-3-1-34 2-10 4-6 11-12 15-10z" fill="#C7C9B8"/>
<path transform="translate(315,500)" d="m0 0h1l1 55 3-8h2l1-2 3-1 1-3 2 1v3l6-2 1-25h1l1 203h-48v-1h26l-1-34z" fill="#7A878A"/>
<path transform="translate(477,555)" d="m0 0 1 2h2l1-2 3 2 1 2 1-3h9l2 3 10 1h3v2l5-2h1l3-1 2 1 3-1h4l1-2 4 2 8 1h5 3l1-1 7 1 4-1v2h3l1 5h4l-1-3h2v3h2l2 4 1-2 2 2 3-2 3 2v3h12l2 1v2l2 1-16 4-12 2-37 2-11 1h-37l-12-1-33-1v-9h5l1-2h3l1-2 5 1 1-3h2l2-1 2 1 1-6h4v-5l5-1h4z" fill="#445153"/>
<path transform="translate(494,857)" d="m0 0 5 1 2-1v2h7l1-2h2v2h2v-2h2v2l3-1 2 1v-2l8 1 2-1h3l7 1 4-1 1 3 2-1 4 2 1-2 2 2 1 2 4-1 7 2 3-2 3 3 5-2v2l2 1h2v3l2-3 2 2h8v3h3v5h-2l-3 1-2-3-7 3-7 2-2 1-3-2-2 2v-2l-7 2-2-1-1 3h-4-8l-4 1-3-1-4 1h-11-4l-5-1-3 3v-2l-6 1h-3l-3-1-4 1-3-1-1 2-6-2-5 1-5-2h-15l-6-3-1 2-4-1v-2l-5 1-1-2-2-1-1-1v3l-4-1-4 1v-2l-5 2-2-2 3-3v-6l4-4v3l9-2 5-2v2l3-1h2l5-2 4 1 1 1 3-3h8v2l2-2 4 1 5-1 9-2z" fill="#6C7C81"/>
<path transform="translate(673,501)" d="m0 0 6 3 3 3-1 1-1 9-1 5-1 4-3 1-2 7-1 3 1 3-3 2-2 5-4 4-4 8-3 1-6 17h-2v2l2 1-4 7 1 3-8 6v2l-17 8-5 1-5-1v-6l-1 1-3-1v-4l-10-12-1-4 2-1v2l7-4 1-2 5-1-1-7h2l1-3 5-4h2l1-3h2v-3h2l1-3 5-5h2v-2h2l3-10h2l-1-5 4-1-1-5 6-6 4 2v13l-1 9 4 1 4-2 1-6v-3h2v-11l4-8h2z" fill="#C7C8B8"/>
<path transform="translate(577,211)" d="m0 0h43l3 5 2 2h-2v2h3 5v-3h7v2l3 1v3 10l-4 1-1-3 4-1-7-2v-3l-2-1-1 3-4 5-2 7-4 5h-2v3l-3 1-1 6 1 3-1 4h-2l2 7 2 4 1 3 2 1v2l2 1 1 6v8h-2l-1 3h-5l-1-4-3-1v-4h-3v-3l-2-1v-5l-2-3 2-1-3-1v-2h5l-1-1-6-2-4-4-3-5-5-4-2-1-4-4-2-1v-2l-5-2-6-3-2-3h2l-7-7 1-4h2l1-8 2-7z" fill="#C8C9B8"/>
<path transform="translate(386,601)" d="m0 0h1l1 22 1 75v23h-9v-2l-3 1v-2l-7 1-2-5v-2l-1-4-1 7h-1v-96l2 3v-6l2-3-1-1 4-1v-2h3l1-6 2 1 1-1h3v2h4z" fill="#808B8D"/>
<path transform="translate(316,412)" d="m0 0h1l1 17 1 4 7-1 6-1v3h2l2-4h1v88l-1 29-2-2 1-2-6 2v-3l-1 1-2 1-1 2-2-1-1 3-2 1-2 9-1 19h-1z" fill="#E4E7D4"/>
<path transform="translate(538,670)" d="m0 0 9 2 1-2 7 3 7 2 3 1h7l-1 4 3 1-5 6-1 2-16 1h-109l2-2h-2l-1-7v-5l1 3h2l1-3 4 1 1-2h4l7-2 10-1h11l5 1 9-1 4 1 4-1 2 1 1-2h28z" fill="#8B9796"/>
<path transform="translate(722,643)" d="m0 0h13l9 3 7 6 4 7 1 5v8l-3 9-7 8-10 4h-10l-9-3-9-8-3-8v-14l4-8 8-7z" fill="#C8C9B8"/>
<path transform="translate(399,276)" d="m0 0h42l-2 2h-3l-2 5-3 3-6 3-2-1-1-6-6 2-1 3v-2h-2l-1 3v-2l-4 1-1 2-4-1v2l-4 1-6 2-2 3h-2l-4 2v2l-1 1 4 3v27l1 12v10h-21l-2-1-1-3-1-34 2-10 4-6 11-12 15-10z" fill="#C7C9B8"/>
<path transform="translate(281,204)" d="m0 0h13l8 4 6 7 2 6v11l-3 7-6 7-9 4h-13l-9-5-6-9-2-7v-7l4-9 7-6z" fill="#E4E7D4"/>
<path transform="translate(356,204)" d="m0 0 3 4 24 1v2l2 1 3 11h4l1 3-2 1 3 3-1 13-1 2-13 3-1 3-3 1v-2l-3 2-4-1-9-11-4-4v-4l4-3-7-3-3-4-1-12 4-1 1-2 2 1z" fill="#C8C9B8"/>
<path transform="translate(748,176)" d="m0 0h1l1 426 8 1 14 7 8 7-1 11-2 9 5 8 3 6 2 13-1 13-3 9h-1l1-8 1-4v-16l-4-12-6-9-7-8-10-7-12-5-9-2h-15l-9 1 1-2 6-1h21l8 1-1-10v-196l-1-30 1-1v-196z" fill="#E4E7D4"/>
<path transform="translate(723,542)" d="m0 0 2 4 1 4-3 11-3 1 2 4v10l1 9-4 7h-2l-2 5h-2v2h-2l-2 11-2 4 3 1h-2l-1 4-11 7-4 2-2-10v-3l-1-2h2l-1-4-7 4h-6v2l-4 3-2 3-5 1-5 2v-2l11-7 10-9 13-15 6-8 7-11 8-14 5-15z" fill="#E3E7D4"/>
<path transform="translate(725,176)" d="m0 0h1l2 10 2 4-1 6h-1l-1 10v137l2 2v5l-2 2v16h3l4 15h2l3-5h3l1 10 3 3v8l-7-1-3-6-3 1-2 7-2 11-1 4 1 4-1 1v14l3 2-1 5h-2l-1 3v10l1-3h2l1 14v11l1 12h-2l-1 4v-2h-2v30l1 4-3 16-2 1 1-11z" fill="#E5E8D5"/>
<path transform="translate(336,518)" d="m0 0h1v76l-4 3h-3l-4-4h3l1-5-2-1 1-3-2-1 1-1-2-1v5h-2l-1 6-1 4-5 3h-1v-22l1-22 3-8h2l1-2 3-1 1-3 2 1v3l6-2z" fill="#768487"/>
<path transform="translate(538,670)" d="m0 0 9 2 1-2 7 3 7 2 3 1h7l-1 4 3 1-5 6-1 2h-13l-6-1-2-6h5l1-1-8-1-2-4-1 4-1-3-6 1h-4-4l-1-2-4 2-4-3-1 3-3-1-3 1h-3l-1-2-7 2-4-2-2 2-4-1-10-1-3 3v-3l-3 1-4-1-3 1-2-1-1 3-3 2h-3v2l2 1-1 1 2 1-1 4h-17l2-2h-2l-1-7v-5l1 3h2l1-3 4 1 1-2h4l7-2 10-1h11l5 1 9-1 4 1 4-1 2 1 1-2h28z" fill="#A0A8A1"/>
<path transform="translate(613,671)" d="m0 0 5 1h3 19l4 1 5 6 3 1 1 4h-2v3l-4 2-9 1h-17l-36-1 3-6 5-1v-2l6-3 2-3h2l4-1z" fill="#A0A7A0"/>
<path transform="translate(725,643)" d="m0 0h10l9 3 7 6 4 7 1 5v8l-3 9-7 8-10 4h-10l-9-3-9-8-3-8v-14l4-8 4-4 2 1-4 5-4 9 4-1-1 4h-3l1 9 3 6 1 3 4 1-1-12h3l2-4 5 5 2 6 5 1h13l-1-11-4-6-3-4v-2l-2-1 3-1 8 4-2-9 1-2-5-2-11-2h-5z" fill="#E2E5D2"/>
<path transform="translate(325,495)" d="m0 0 2 1 1 4 3 6 2-4 2-2 1 47-2-2 1-2-6 2v-3l-1 1-2 1-1 2-2-1-1 3-2 1-2 9-1 19h-1v-44l1-27 1-2h2l1-3 3 1v-2l-2-1h3z" fill="#C7C8B8"/>
<path transform="translate(448,546)" d="m0 0h76l67 1v1l-15 1h-21l-10 2-4-1v5l-1-2-6-1v-2h-2v2h-5v2l-3-1-3 1v-2l-3-1 1-3-25 1v-2l-9 1-3 1-4 5-6 1-4-2-1 3-3-2-5 2 3 1-2 1v2l-2 1v4l-3-1v2l-5 3-3 1-3 3h-3v-22l1-3 6-1z" fill="#7F8A8B"/>
<path transform="translate(234,245)" d="m0 0 3 1 6 10 9 10 10 7 13 5 5 1 1 3-1 3h-5l1 5-2 4h6l-3 1-1 8-2 5h-2v2l-5 1-1-16-3-5-11-7-11-8-5-3v-6l3-3v-8l-5-6z" fill="#E3E6D4"/>
<path transform="translate(360,353)" d="m0 0h18v2h-2v2l-9-2 2 5-2 13-5 1-2-1v2l2 1-6 1v4h15l-1 2h-25l-6-1 1-2-6-4-1-3 1-8 3-3h2v-2h2v-4l-2-2z" fill="#E4E7D5"/>
<path transform="translate(675,671)" d="m0 0h1l3 15 4 10 11 12 7 5-1 3-2-1h-3l-11 6-8-4-7-6-4-12-1-7-2-1-10-1 3-2 8-1v-2l2-1 4-9 6-1z" fill="#E3E6D4"/>
<path transform="translate(335,282)" d="m0 0 3 2-1 4 1 5-2 15-2 4-1 7-5 1v2h-3v2l-4-1v2l2 1-3 2-2 12-2 4-1-10v-28l-4-1h4v-8l3-3 2-5h2l2-4 7-1h4z" fill="#C8C9B8"/>
<path transform="translate(385,313)" d="m0 0 3 3v15l1 12v10h-21l-2-1-1-3v-22l1-1 8-1-2-2 6-2 1-2h3l1-2 1-1z" fill="#6A787C"/>
<path transform="translate(385,570)" d="m0 0h2l1 28v25h-1l-1-18h-9l1 2h-3v2h-3v2l-2 1-1 4h-2l1 7-2 2v-17l1-23 1-8 5-2 3-2 9-2z" fill="#C6C7B7"/>
<path transform="translate(643,524)" d="m0 0 2 1v3l-3 2v4h-2l-1 5-2 5h-2v2l-5 4-3 4h-2v3l-5 4h-2l-1 3-3 3h-2l1 7-10 3-2-2-1-7v-3l1-5 2-1 3-8 2 2 3-4 4-1 3-1 1-1h2l1-5 2 2 4-4 1-3-15 7-7 1 2-2 15-6 16-9z" fill="#818C8D"/>
<path transform="translate(316,681)" d="m0 0 3 1h-2l1 4-1 2 3 1v-3l7-2 1 2v2l2 3 6 7 2 2v21h-48v-1h26l-1-35z" fill="#6E7D80"/>
<path transform="translate(691,210)" d="m0 0h2v8 4 30l-4-1-1-3-3 2-1-1-3 2 1-5-4 3-5-2v-11-1l-1-5 1-11 4-4 5-1 7-3z" fill="#C9CAB9"/>
<path transform="translate(335,654)" d="m0 0h2v44l-2 2-3-5-4-6-2-1v-3l-6 1 1 4-4-1v-7l-1-1-1 4v-26l7-1 4 2 4-1 3-1z" fill="#67767A"/>
<path transform="translate(336,297)" d="m0 0h1l1 7v35l-1 14-10-1h-10l-2 4v-22h1l1 6 2-13 2-4 4 1v-2l4-3 3-2 2-11h1z" fill="#9BA39E"/>
<path transform="translate(365,681)" d="m0 0 2 1v4l4-1 1-2h-2v-2l4 2-1 4 6 2v2h-4v2l6-1v2l1-2 5 2-1 3h-5l1 4 1-2 5 1-1 21h-7v-2l-3 1v-2l-7 1-2-5v-2l-1-4-1 7h-1z" fill="#889393"/>
<path transform="translate(386,628)" d="m0 0h2v57l-1 3-5 1-3-1-4-3 2-3-4-2-1-2-3 1v-4l1-2v-3l4-3 2-4v-3l-2-2v-2l-2-3 6-2 4-6h2l1-5v-3z" fill="#6B7A7E"/>
<path transform="translate(315,500)" d="m0 0h1l1 98 2-2h2l1-2-3-2 3-2 1-5h2l1-4 3 1 1 1 1 2h-2l1 6-2 3 2 1v2l7-3v26l-2 2v-5l-2-1 1-2 1-4h-3l-2 3-3-1-1-3-2 2v3l-4-1-1 5h-3l-1-9z" fill="#69777A"/>
<path transform="translate(338,410)" d="m0 0 6 2h21l1 1v9l-2 7h-8l-8 2-10 2-1-18z" fill="#818C8D"/>
<path transform="translate(471,573)" d="m0 0 2 2 2-1v2l3-2h10l4 2v2l3 1-2 4 1 2h-20l-33-1v-9h21l2 1 1-2 4 1z" fill="#0C1E27"/>
<path transform="translate(483,547)" d="m0 0h11l5 1h20v6h-2l-1 2v-2l-8 1h-3l-2-2-4 1h-3-9l-1 5-2 1-2-4-1 2-4-1-9 1 1 5-4 1-2 5-4 1-3 2-6 1-4 2h-5v-2l4-1 3-4 2 1 1-2 4-1v-2h3l-1-4h3l-1-6 3-1h3l2 2 1-2 5 1 3-1 2 1 2-4z" fill="#7E8A8B"/>
<path transform="translate(447,363)" d="m0 0 5 2 2 7 6 5v3h-16l-4 1h-34v-2l8-2 2 1v-3l13-3 1-3 10-4h7z" fill="#C8C9B8"/>
<path transform="translate(255,172)" d="m0 0h5l1 1 15 1h22v2h-19l-12 3-11 6-10 9-7 9-3 4-1-5h2l-2-6 3-1v-2h-2l2-4 2-5h2v-4h2l2-4 4-3z" fill="#E2E6D3"/>
<path transform="translate(485,678)" d="m0 0 3 1 1 1 5-1 3 2 11-1h3 3l3 2 1-1h3l-2 1-1 4-2 3-14 1h-36l2-4-1-1-2 1-1-4 11-1 1 1 1-2 5 1-1-2z" fill="#808B8C"/>
<path transform="translate(386,601)" d="m0 0h1v9l-1 10-1 3-3 1-1-5-5 4-4 2 3 3-4 4 4 1-5 5-1 2-4 1v-22l2 3v-6l2-3-1-1 4-1v-2h3l1-6 2 1 1-1h3v2h4z" fill="#9FA6A0"/>
<path transform="translate(631,675)" d="m0 0 11 3 2 3-2 2 1 3h-2v3l-3 1h-17l-19-1 4-3h2v-2l8-4 4 1 4-4 7 1z" fill="#8C9897"/>
<path transform="translate(610,212)" d="m0 0 3 2v2h2l1-3 3 5 2 4-3 6 1 9-2-2-4 3-2-2-7-1-3-3v-3l-2-2 1-7-1-3 5-3v2l5-1z" fill="#E4E7D4"/>
<path transform="translate(323,616)" d="m0 0h2l2 2 2 1v4l2 3-6 2-4-1-1 2 3 1v2h2v-2l3 1 1 3-6 2v3l1 1 3-1 1 3-5 5h-1l1 3h-4l3 1-1 3-3 2 1 2-4 1v-14l1-26h4v-2z" fill="#859191"/>
<path transform="translate(326,541)" d="m0 0 3 1v3l6-2 1 4v10h-2l-1-4v4l-6 1-2 6-4 2 2 2h-3l-1 2 1 1 6 2-2 1v4l-6-3v5l2 2-2 3h-2l1-30 3-8h2l1-2 3-1z" fill="#9EA6A0"/>
<path transform="translate(316,693)" d="m0 0 3 1 1 2 3 1-1 6h2v-5l5-1v3 3l1 5-4 2 2 4 7-1 1 3h-2l1 3 2 2h-47v-1h26zm1 1m1 3v6l3-2-1-4z" fill="#748081"/>
<path transform="translate(380,617)" d="m0 0 2 2v4l3 2-3 2 2 1h-2l-1 2v1l1 2h-4l2 6-1 4-3 1v2l-5 2 1 5-2 1-2-2-1 3 2 1-2 1 3 2-3 1 2 6v1l-1 3h-2l-1 3v-32l4-4 5-4h-6l5-5-1-1v-2l7-5z" fill="#8C9695"/>
<path transform="translate(471,672)" d="m0 0h12l4 2-1 3-6-1-3 3v-3l-3 1-4-1-3 1-2-1-1 3-3 2h-3v2l2 1-1 1 2 1-1 4h-17l2-2h-2l-1-7v-5l1 3h2l1-3 4 1 1-2h4l7-2z" fill="#9EA59F"/>
<path transform="translate(335,630)" d="m0 0h2v24l-3 5-7 1-2 1v-2h-6v-2l-2-1 5-5-3 1v-2l2-2-3-2 4-1h2l3-4 1-2 2 1 2-3h3z" fill="#6C7B7F"/>
<path transform="translate(480,546)" d="m0 0h44l67 1v1l-15 1h-21l-10 2-4-1v5l-1-2-6-1v-2h-2v2h-5v2l-3-1-3 1v-2l-3-1 1-3-25 1v-2l-9 1h-5z" fill="#8A9493"/>
<path transform="translate(673,687)" d="m0 0 1 2 3 1 2 2 1 4 3 4v2l4 2 4 4 1 4-1 2h-5l-5-4-8-4-4-6v-7l3-5z" fill="#C8C9B8"/>
<path transform="translate(265,594)" d="m0 0 2 2 1 4v29l3 2h-2l-2 11 1 54 1 3-1 1-1 21-2-3z" fill="#E6E9D6"/>
<path transform="translate(725,176)" d="m0 0h1l2 10 2 4-1 6h-1l-1 10v137l2 2v5l-2 2-1 6h-1z" fill="#E6E9D6"/>
<path transform="translate(272,280)" d="m0 0 9 1-1 4h-5l1 5-2 4h6l-3 1-1 8-2 5h-2v2l-5 1-1-19 1-2h2v-6z" fill="#C8C9B8"/>
<path transform="translate(386,610)" d="m0 0h1l1 18h-2v10 4l-1 2-5 5-2 3-6 1v-2l-2-1 4-5 1-3 5-1-2-1 1-3-1-4 3-1-3-3 4-1 1-3v-3l2-2-1-2h2zm-18 40 7 6 1 2-5 1v-2h-2v-2h-2z" fill="#758386"/>
<path transform="translate(480,552)" d="m0 0h2v2h2v2h-2l-1 2-4-1-9 1 1 5-4 1-2 5-4 1-3 2-6 1-4 2h-5v-2l4-1 3-4 2 1 1-2 4-1v-2h3l-1-4h3l-1-6 3-1h3l2 2 1-2 5 1 3-1 4 1z" fill="#6B7A7F"/>
<path transform="translate(442,548)" d="m0 0h8l6 2 5-1v2l-6 2-1 2h2l-1 3-5 1v2l-1 1 2 4-6 3-2 4h-2v-22z" fill="#8B9696"/>
<path transform="translate(538,681)" d="m0 0 6 2v3l-1 1 8 1 1-2v2l3 1-3 1h-50v-1l14-1v-2l5-1v-2l3-1 5 1h2l1 1 4-1z" fill="#879291"/>
<path transform="translate(366,412)" d="m0 0h20l2 2h-4v2l-2 1-3 5-2 4-6 1h-4l-2-1z" fill="#C8C9B8"/>
<path transform="translate(366,691)" d="m0 0 1 2 4 1-1 5 6 2-4 1-1 8h2l1 2 3 1-1 1 5 1v-2l5-1 1 9h-7v-2l-3 1v-2l-7 1-2-5v-2l-1-4-1 7h-1v-23z" fill="#9EA59F"/>
<path transform="translate(461,593)" d="m0 0h11l7 2 1 4-5 3h-11v1h-9l-3-3 1-3 7-3z" fill="#C8C9B8"/>
<path transform="translate(606,551)" d="m0 0 4 4 2-2h3v-2h5l1 4h-3l-1 3-5 1-2 1-3 4 1 8v4l-6 1-2-7-1-4 2-6 2-1z" fill="#8C9898"/>
<path transform="translate(316,660)" d="m0 0 3 1 2 1 2-2 2 2h6l2 2-1 2-3 1-1 2 1 3-4 4h-3l-2 2-1-2-3-1-1-4v-10z" fill="#7A8789"/>
<path transform="translate(385,313)" d="m0 0 3 3v10l-4 2-6 2h-4l-2 2v-2h-6l1 7-2 4v-14l1-1 8-1-2-2 6-2 1-2h3l1-2 1-1z" fill="#818D8D"/>
<path transform="translate(565,600)" d="m0 0h3l-2 6 3 1 7 1 4 1 12-1 7-1h10v3l-11 2-34-1v-2l-5-3v-4h4z" fill="#C9CCBC"/>
<path transform="translate(418,334)" d="m0 0 31 1-5 5-16 1-4 4h-4z" fill="#C8C9B8"/>
<path transform="translate(338,410)" d="m0 0 6 2h21l1 4h-3v2h-4l-9 2h-6l-1-3-5-2z" fill="#69797E"/>
<path transform="translate(324,574)" d="m0 0 5 1-2 4 2 2h-3v5h-2l-1 6-1 4-5 3h-1v-14l2-1-1-4 1-5 4 1h1z" fill="#808C8D"/>
<path transform="translate(631,675)" d="m0 0 11 3 2 3-2 2 1 3h-2v3l-3 1h-16v-1h6v-2h4l1-2h2 3l1-2-6-1v-2l-6 1-1 3-5-2 2-5h6l2 1z" fill="#909B99"/>
<path transform="translate(336,518)" d="m0 0h1v75l-6-2 4-6h-2l1-7v-2l-5-2v-3l1-3 3-2v-4l2-1z" fill="#718083"/>
<path transform="translate(363,422)" d="m0 0h2v6l-5 1-9 1-6 2-7 1v-9l2-1 5 2 6-1h3l4-1z" fill="#A1A8A1"/>
<path transform="translate(626,551)" d="m0 0 1 3h-2v3l-5 4h-2l-1 3-3 3h-2l1 7-5 1-2-12 7-7 2 2 3-3h3l1-2 1 1z" fill="#A1A8A1"/>
<path transform="translate(375,635)" d="m0 0 5 2v6l-4 1v2l-5 2 1 5-2 1-2-2-1 3 2 1-2 1 3 2-3 1 2 6v1l-1 3h-2l-1 3v-19l1-8h3l-2-4 6-1z" fill="#828D8E"/>
<path transform="translate(316,693)" d="m0 0 3 1 1 2 3 1-1 6h2v-5l5-1v3 3l1 5-5 2-1-3-2 3-3-1-2 10h-1zm1 1m1 3v6l3-2-1-4z" fill="#849090"/>
<path transform="translate(326,541)" d="m0 0 3 1v3l6-2 1 4v10h-2l-1-4v2h-2v-2h-12v-5l3-1 1-2 3-1z" fill="#9EA59F"/>
<path transform="translate(336,594)" d="m0 0h1v26l-2 2v-5l-2-1 1-2 1-4h-3l-2 3-3-1 1-4-3-4 1-2 4 1 1-4-1-2z" fill="#687679"/>
<path transform="translate(333,552)" d="m0 0 2 1-1 4h2l-1 5h-2v2l2 1v2l-2 2-4 1 1-4v-2l-4 2v2l2 2-4 2-1-2h-2l-1 2-2-1 1-2v-3l-1-2h5l1-2h2l-1-3 1-2h5z" fill="#889392"/>
<path transform="translate(506,413)" d="m0 0 9 1-2 1-1 2h-28l-38-2v-1h39z" fill="#C8C9B9"/>
<path transform="translate(326,581)" d="m0 0 3 1 1 1 1 2h-2l1 6-2 3 2 1 2 5-2 4-3-3v-2l-5-1-5 1 2-3h2l1-2-3-2 3-2 1-5h2z" fill="#758385"/>
<path transform="translate(336,328)" d="m0 0h1l1 11-1 9-5-2-1-3-2 3h-3v2h-2l2-5 4-4-1-8 2-2h3v3z" fill="#869292"/>
<path transform="translate(571,575)" d="m0 0 2 4 1-2 5 2 1-2h13l-2 2-20 4h-18v-1l9-1 1-3 4-2z" fill="#13242D"/>
<path transform="translate(365,681)" d="m0 0 2 1v4l4-1 1-2h-2v-2l4 2-1 4 6 2v2h-4v2 3l-4 4-4-2 3-2-3-2-2-2z" fill="#849090"/>
<path transform="translate(386,628)" d="m0 0h2v31l-2 1-2-1v-2h2l-1-5-3-1h-3l2-5 3-1 1-5v-3zm-8 23m-3 1 3 1-3 1z" fill="#657478"/>
<path transform="translate(316,681)" d="m0 0 3 1h-2l1 4-1 2 3 1v-3l7-2 1 2v2l1 3-2 1-2-1 1 6h-6l-4-4-1-8zm1 13m1 3h2l1 5-3 1z" fill="#7B888A"/>
<path transform="translate(454,552)" d="m0 0 4 1 1 3 3 1-2 1v2l-2 1v4l-3-1v2l-5 3-3 1-3 3-1-2 3-4 3-2-1-6 7-2 1-2h-2z" fill="#7C888A"/>
<path transform="translate(336,700)" d="m0 0h2v21l-4-2 1-6-5 2-5-2 1-5 3-1h3v3l2-1h1v-2h-2v-2h2z" fill="#6D7B7F"/>
<path transform="translate(335,630)" d="m0 0h2v15l-2-1-1 1-3 2h-3l-3 2-4-1-3-2 4-1h2l3-4 1-2 2 1 2-3h3z" fill="#707E81"/>
<path transform="translate(441,547)" d="m0 0h10v1l-7 1-2 2v14l-1 6-2-4-5-5v-7l5-5z" fill="#C8C9B8"/>
<path transform="translate(323,616)" d="m0 0h2l2 2 2 1v4l2 3-6 2-4-1-1 2v-3l-2-1-1-1-1-5h4v-2z" fill="#838F8F"/>
<path transform="translate(325,607)" d="m0 0 3 3v2l3-1-1-3 6 2-4 4-7 2-5 1v2h-4v26h-1v-30l1 3h3l-1-3 1-5 1 3h3v-4h2z" fill="#728083"/>
<path transform="translate(480,546)" d="m0 0h44l24 1v1l-54 1v-2l-9 1h-5z" fill="#ADB2A8"/>
<path transform="translate(325,639)" d="m0 0h2l1 3-5 5h-1l1 3h-4l3 1-1 3-3 2 1 2-4 1v-14h3v-2l6-3z" fill="#859090"/>
<path transform="translate(258,1008)" d="m0 0 2 1 1 7-4 2v-2l-3 1v-2h-2l-1 3-3 5h-2v-2l-4-1h2l1-3h2l1-5 1-2 9 1z" fill="#A4ABA3"/>
<path transform="translate(643,524)" d="m0 0 2 1v3l-3 2v4h-2l-1 5-2 5h-2v2l-5 4-2 2-1-4 4-4h2v-3h2l1-8 3-1 1-5z" fill="#9EA59F"/>
<path transform="translate(356,428)" d="m0 0h9v6h-13l-13-1v-1h6l1-2z" fill="#C8C9B8"/>
<path transform="translate(315,671)" d="m0 0 1 4 4 1 3 3 5 2-4 3-2-1 1 3h-3l1 4-4-1v-7l-1-1-1 4z" fill="#748285"/>
<path transform="translate(321,664)" d="m0 0h7l1 3-1 2 1 3-4 4-3-2v-2l-4 2-1-7 4-1z" fill="#707F83"/>
<path transform="translate(630,679)" d="m0 0 3 1v2l6 1-1 3-4 1h-2-4v2h-6v-6l-2-1 6 1 1-2h3z" fill="#828D8E"/>
<path transform="translate(446,609)" d="m0 0 41 2v1l-33 1h-14l1-3z" fill="#ACB1A7"/>
<path transform="translate(386,610)" d="m0 0h1l1 18h-2v10h-2l-2-5-4-4 4-1 1-3v-3l2-2-1-2h2zm-8 23 4 1-1 2-3-1z" fill="#838E8F"/>
<path transform="translate(337,395)" d="m0 0h1l1 10-1 8-3-2-1 1-4-3h-2l-1-5 10-1-1-6z" fill="#A1A8A1"/>
<path transform="translate(331,579)" d="m0 0 4 4h-2v2h2l-1 4-2 1 5 4-4 3h-3l-4-4h3l1-5-2-1 1-3-2-1z" fill="#7D898A"/>
<path transform="translate(318,552)" d="m0 0h10l3 1v3l2 1-6 1-2 6-4-2 1-3-3-1z" fill="#939C99"/>
<path transform="translate(385,313)" d="m0 0 3 3v4h-2v6l-2-1-1-1-3 3h-9l3-2-2-2 6-2 1-2h3l1-2 1-1z" fill="#A2A9A2"/>
<path transform="translate(565,600)" d="m0 0h3l-2 6 3 1 7 1 4 3h-16v-2l-5-3v-4h4z" fill="#C8C9B8"/>
<path transform="translate(335,654)" d="m0 0h2v11l-4-1-5-1-4-1h-2l-2 1-4-2-1-2 7-1 4 2 4-1 3-1z" fill="#68777B"/>
<path transform="translate(329,342)" d="m0 0 4 1v2l4 3v5l-10-1h-4v-5l3 1v-2l3-2z" fill="#919B98"/>
<path transform="translate(316,600)" d="m0 0 5 2 1 2-2 1-1 3h4l1 6-4-1-1 5h-3l-1-9z" fill="#879292"/>
<path transform="translate(366,656)" d="m0 0 7 1v2l5 1-2 8-7-2-2-2v-4-1z" fill="#728084"/>
<path transform="translate(478,887)" d="m0 0 7 2h3v3l-4 2-2 2-1-2-6 1-3-1 2-5 2-1 2 1z" fill="#8D9898"/>
<path transform="translate(606,551)" d="m0 0 2 4v3 2h-3v4h-2l1 7 2 4-4 2-2-7-1-4 2-6 2-1z" fill="#7F8A8B"/>
<path transform="translate(13,868)" d="m0 0 4 1 2 3 1-2v3l-3 1 1 2-12 2v-2l-2-1 5-1v-4z" fill="#B0B5AA"/>
<path transform="translate(14,857)" d="m0 0h2l1 6h5l1 2-3 1-1 6-2-1-2-5h2v-2h-3l-1 3h-2l-2-4 1-3z" fill="#BDBFB1"/>
<path transform="translate(447,548)" d="m0 0 9 2 5-1v2l-6 2-1 2h2l-1 3-3 1-5-4-3-2h4z" fill="#8E9998"/>
<path transform="translate(442,548)" d="m0 0h5l1 5v1l2 2v3l-2-1h-1l-2 3-3 1-1-5v-6z" fill="#9FA6A0"/>
<path transform="translate(339,419)" d="m0 0 1 2 9 1 10-2 4-1 3 1v2l-9 2-5 2-5-1-3 1-6-2z" fill="#8E9998"/>
<path transform="translate(543,676)" d="m0 0 2 1 1 2 8 1v4l-6-1 1 5h-7l2-4-5-2 2-3z" fill="#8A9696"/>
<path transform="translate(941,844)" d="m0 0 7 1 1 4-2 4-6 2-2-7z" fill="#ADB2A8"/>
<path transform="translate(326,712)" d="m0 0 4 2 5-1 1 3h-2l1 3 2 2-13-1-5-1v-2h2l1-2v2h4l-1-4z" fill="#8C9694"/>
<path transform="translate(377,692)" d="m0 0 4 1h3l3 2-1 2h-5v3l-5 2-5-2 2-4z" fill="#879292"/>
<path transform="translate(381,703)" d="m0 0h6v12l-4-2-4-1 1-2-1-4 1-2z" fill="#7D898B"/>
<path transform="translate(381,699)" d="m0 0 1 2 1-2 5 1-1 3-7 2v2l-12-2 4-1v-2z" fill="#8D9796"/>
<path transform="translate(376,633)" d="m0 0h2l1 3h-4l-2 5-5 2 2 3-2 1-2-1v8h-1v-13l4-4 4-3z" fill="#919B98"/>
<path transform="translate(127,943)" d="m0 0 7 2 1 3-1 2h-6l-1 2-4 1v-6h2v-2h2z" fill="#ACB1A7"/>
<path transform="translate(326,557)" d="m0 0 3 1 2 4-4 3-1 3 2 2-4 2-1-2h-2l-1 2-2-1 1-2v-3l-1-2h5l1-2h2l-1-3z" fill="#828E8E"/>
<path transform="translate(386,689)" d="m0 0h2l1 9v23h-1v-21l-6 1-1-4 5-3z" fill="#657376"/>
<path transform="translate(383,712)" d="m0 0 3 1 1 2v6h-7v-2l-3 1-1-3 1-2 4-1z" fill="#9BA39E"/>
<path transform="translate(334,643)" d="m0 0 2 1 1 5-7 2-4 1h-3-4v-2h4v-2l4-1 3-2h3z" fill="#778588"/>
<path transform="translate(380,353)" d="m0 0h9v1l-8 1v2h2v3l3-1 1 2-2 1 2 3-7 2-2-4h2l-1-6z" fill="#E6E9D6"/>
<path transform="translate(541,676)" d="m0 0v3l-5 5-5 1v-2l-3 1 2-5 6-2z" fill="#8C9897"/>
<path transform="translate(998,1015)" d="m0 0 4 2h5l-1 4 2 1-3 2h-6l-2-6z" fill="#969F9C"/>
<path transform="translate(333,543)" d="m0 0h2l1 4v10h-2l-1-9-2-1-1 2-3-2 1-3zm-5 8 5 1v3h-2v-2h-3z" fill="#A8AEA5"/>
<path transform="translate(336,297)" d="m0 0h1l1 7v20l-4 2 2-3-1-2 1-5-1-3-2-1 1-6h1z" fill="#8A9593"/>
<path transform="translate(492,547)" d="m0 0 7 1h19v2l-3 1-4-2-1 3-7-1-3-1-7 1z" fill="#909B9A"/>
<path transform="translate(701,175)" d="m0 0 23 1-4 2h-27l1-2z" fill="#BFC5B9"/>
<path transform="translate(324,574)" d="m0 0 5 1-2 4 2 2h-3v5l-3-1 1-4-7-1 1-5 4 1h1z" fill="#879292"/>
<path transform="translate(306,306)" d="m0 0h6l2 1v2l-23 1v-3z" fill="#435052"/>
<path transform="translate(316,693)" d="m0 0 3 1 1 3-1 2v8l-2 12h-1z" fill="#A9AFA6"/>
<path transform="translate(376,603)" d="m0 0 2 1 1-1 2 4-3 5-5 2-5-2 4-1v-2h3z" fill="#9FA7A0"/>
<path transform="translate(336,698)" d="m0 0m-5 1 4 2v4h-2v2l4 1v2l-5 1-2-2 1-2-4-3h2v-2l2-1z" fill="#788588"/>
<path transform="translate(276,626)" d="m0 0 3 3 1 3-1 2 5 1v2h-2v2l-5-2-1-3-2-2z" fill="#E1E4D1"/>
<path transform="translate(317,570)" d="m0 0 9 3-2 1v4l-6-3v5l2 2-2 3h-2v-8z" fill="#969F9B"/>
<path transform="translate(387,685)" d="m0 0 1 4h-2v5l-3-1-1 1-2 1-3-3-1 2-3 1 2-5 5-1 7-1z" fill="#778486"/>
<path transform="translate(366,666)" d="m0 0h7l-3 6 2 2-2 3-5 1 1-8 2-2z" fill="#7C898A"/>
<path transform="translate(316,620)" d="m0 0 4 5-1 4 4 1v2l-4 1-1 5v2h-2z" fill="#9EA6A0"/>
<path transform="translate(374,624)" d="m0 0 4 3v3l4 2v1l-8 1-2-1-4-1 3-1 2-4-1-2z" fill="#879292"/>
<path transform="translate(519,548)" d="m0 0h13l-5 5h-3l-3 1v-2l-3-1z" fill="#838E8F"/>
<path transform="translate(510,277)" d="m0 0h8l9 3-2 4-6-3-3 1-6-3z" fill="#C5C7B8"/>
<path transform="translate(232,215)" d="m0 0h1l1 28-2-2-1-4v-18z" fill="#DBDECC"/>
<path transform="translate(275,1013)" d="m0 0v3l-3 1 4 1h2l1 1 2-1-1 5-4-1-2 2-3-2-1-5 3-3z" fill="#A3AAA2"/>
<path transform="translate(363,867)" d="m0 0 1 4 3 2v2h-2l-1 4-1-3-4 1 2-5-3-1v-2l4-1z" fill="#929C9A"/>
<path transform="translate(326,581)" d="m0 0 3 1 1 1 1 2h-2l1 6-4-2v3l-4-1 1-6h2z" fill="#707F82"/>
<path transform="translate(344,412)" d="m0 0h21l1 4-1-2-19 1-3-1z" fill="#435052"/>
<path transform="translate(679,692)" d="m0 0h2l6 9 5 6-4-1-5-4-5-8z" fill="#D9DDCC"/>
<path transform="translate(371,669)" d="m0 0h6l-1 7-7 3v-4l1-2v-3z" fill="#728184"/>
<path transform="translate(335,630)" d="m0 0h2v15l-2-1-4-4 1-3h3z" fill="#667579"/>
<path transform="translate(385,610)" d="m0 0h1v10l-1 3-3 1-1-5v-6z" fill="#969F9B"/>
<path transform="translate(332,339)" d="m0 0 4 4 1 5-5-2-1-3-2 3h-3v2h-2l2-5 3-3z" fill="#7F8A8C"/>
<path transform="translate(386,628)" d="m0 0h2v18h-3v-6-3z" fill="#6D7B7F"/>
<path transform="translate(324,626)" d="m0 0 1 2 5-1 2 3-4 3-3-3v2l-6-2-2-2z" fill="#738083"/>
<path transform="translate(785,963)" d="m0 0h5v2h5l-3 2-2 4h-2v-2l-5-1 1-2 2 1z" fill="#B0B4A9"/>
<path transform="translate(518,675)" d="m0 0 4 2-4 6-2-1-1 1-2-3-3-2 6-2z" fill="#8D9898"/>
<path transform="translate(360,416)" d="m0 0 1 2h2v-2h3v4h-5l-2 2h-3-4l1-3z" fill="#7F8A8B"/>
<path transform="translate(336,685)" d="m0 0h1v13l-2 2-3-5-1-2h2v-2h2l-1-4z" fill="#637277"/>
<path transform="translate(365,681)" d="m0 0 2 1v4l4-1 1-2h-2v-2l4 2-1 5-3 1-5 3z" fill="#8D9897"/>
<path transform="translate(382,633)" d="m0 0 3 2v4l1 5-8-3 1-5h2z" fill="#778487"/>
<path transform="translate(615,551)" d="m0 0h5l1 4h-3l-1 3h-4l-1-5h3z" fill="#8C9696"/>
<path transform="translate(365,655)" d="m0 0 3 3 2 1-3 1 2 6v1l-1 3h-2l-1 3z" fill="#909997"/>
<path transform="translate(368,650)" d="m0 0 7 6 1 2-5 1v-2h-2v-2h-2zm6 0h2l-1 3h-3v-2z" fill="#798689"/>
<path transform="translate(386,610)" d="m0 0h1l1 18-6-1 1-2v-3l2-2-1-2h2z" fill="#788588"/>
<path transform="translate(316,586)" d="m0 0 3 1h-2l2 5 4 2-4 4-3 1z" fill="#8F9997"/>
<path transform="translate(725,521)" d="m0 0h3l-2 15-2 5h-1l1-11z" fill="#E3E5D3"/>
<path transform="translate(324,706)" d="m0 0 1 3 2 7 2 1-5 1-2-1 1-5h-5l1-4 3 1z" fill="#778487"/>
<path transform="translate(375,680)" d="m0 0 4 4-2 2 7 1-4 3-8-3 1-4-1-2z" fill="#7B888A"/>
<path transform="translate(505,675)" d="m0 0 4 2 2-1 1 5-2 2-2-2-6-1v-3z" fill="#899595"/>
<path transform="translate(335,654)" d="m0 0h2v11l-4-1-3-3 5-6z" fill="#6A797D"/>
<path transform="translate(375,635)" d="m0 0 5 2v6h-7l-2-2h2z" fill="#7F8B8C"/>
<path transform="translate(333,612)" d="m0 0h2l1 3-1 1 1 3-2 3-5-5-4-2 7-2z" fill="#848F90"/>
<path transform="translate(676,612)" d="m0 0 1 3-4 3-2 3-5 1-5 2v-2l11-7z" fill="#DEE1CF"/>
<path transform="translate(336,559)" d="m0 0h1v17l-2-3v-4l-2 1-3-2 3-2v-4z" fill="#5F6D70"/>
<path transform="translate(333,654)" d="m0 0 3 1-2 4-7 1-2 1v-2l-3-1h2v-2l6 1 1-2 1 1z" fill="#7B888A"/>
<path transform="translate(325,630)" d="m0 0 3 1 1 3-6 2-6-2 2-1 1-2 5 1z" fill="#838F90"/>
<path transform="translate(336,700)" d="m0 0h2v17h-1l-1-8-1-2h-2v-2h2z" fill="#526063"/>
<path transform="translate(369,691)" d="m0 0 5 1 1 1v3l-4 4-4-2 3-2-3-2 3-1z" fill="#8F9A98"/>
<path transform="translate(566,677)" d="m0 0h5l1 3 2 1-4 4h-3l-1-4 1-2-2-1z" fill="#ADB2A8"/>
<path transform="translate(325,616)" d="m0 0 5 1 4 3-1 3-4 1-2-4-1-1z" fill="#6C7A7E"/>
<path transform="translate(599,607)" d="m0 0h10v3l-9 1-3-2z" fill="#C6C8B8"/>
<path transform="translate(457,549)" d="m0 0h4v2l-6 2-1 2h2l-1 3-4-2-1-2 3-4z" fill="#8A9594"/>
<path transform="translate(617,547)" d="m0 0 2 4-2 1-2-1v2l-3 1-2 2-2-3 3-4 4-1z" fill="#7E8A8B"/>
<path transform="translate(315,671)" d="m0 0 1 4 4 1 1 3h-2v2h-3l-1 4z" fill="#627073"/>
<path transform="translate(735,670)" d="m0 0h2v2h2l1 5-4 1-3-4z" fill="#E6E9D6"/>
<path transform="translate(445,556)" d="m0 0 4 2-1 2 2 1h-2v2l-4 2-2 3-1-6 4-3z" fill="#929C9A"/>
<path transform="translate(282,1016)" d="m0 0 1 2h2l1-2 2 1v7h-6z" fill="#ABB0A6"/>
<path transform="translate(845,918)" d="m0 0h5l1 7-3 1-1-3-6-2 3-1z" fill="#A6ACA4"/>
<path transform="translate(329,633)" d="m0 0 2 3-6 4-2 2-2-6z" fill="#6F7D81"/>
<path transform="translate(316,681)" d="m0 0 3 1h-2l1 4-1 2 6 2-1 3h-2l-2 1-2-1-1-8z" fill="#889392"/>
<path transform="translate(335,679)" d="m0 0h2v6l-2-1zm-1 6 2 1-2 1zm-4 1 4 1 1 4h-2v2l-2-1z" fill="#738185"/>
<path transform="translate(322,651)" d="m0 0 4 4h-2v3l-5 1v-2l-2-1z" fill="#728084"/>
<path transform="translate(606,551)" d="m0 0 2 4v3 2h-3v4l-3-1 1-1-2-2 2-1z" fill="#828D8E"/>
<path transform="translate(608,554)" d="m0 0h3 1v5l-2 1-2 3h-2l-1 4v-7l3-3z" fill="#909A99"/>
<path transform="translate(417,376)" d="m0 0h3v3l14 1v1h-20l4-3z" fill="#E4E7D4"/>
<path transform="translate(373,696)" d="m0 0h7l-1 2 2 2-5 2-5-2z" fill="#7C898B"/>
<path transform="translate(579,577)" d="m0 0h14l-2 2-10 2-2-1z" fill="#172830"/>
<path transform="translate(334,404)" d="m0 0h3v6h-3l-1 2-3-5h2v-2z" fill="#969E9A"/>
<path transform="translate(468,683)" d="m0 0 1 4 1 2-10 1v-2l6-3z" fill="#8A9696"/>
<path transform="translate(628,544)" d="m0 0 4 2-4 3v2h-2l-1 2-3 2-1-3 4-1 1-5h2z" fill="#8B9797"/>
<path transform="translate(451,564)" d="m0 0h4v2l-5 3-3 1-3 3-1-2 3-4 5-1z" fill="#7C8889"/>
<path transform="translate(320,547)" d="m0 0 3 1v2h2l1-2 1 3-4 2h-4v-5z" fill="#ACB1A7"/>
<path transform="translate(623,677)" d="m0 0h5l-1 6h-3l-3-1z" fill="#8B9696"/>
<path transform="translate(225,998)" d="m0 0 2 1v5l-5 1-1-3-4-1 3-1 3 1z" fill="#C2C4B4"/>
<path transform="translate(292,871)" d="m0 0h7l-3 6-1 6h-1v-8l-2-1z" fill="#A5ABA3"/>
<path transform="translate(935,860)" d="m0 0 5 1 1 5-2 2-3-3-1-4z" fill="#C6C7B7"/>
<path transform="translate(774,701)" d="m0 0v3l-4 2v2l-6 5v-3l8-8z" fill="#D9DCCA"/>
<path transform="translate(380,641)" d="m0 0 4 1v3l-5 2-4-5z" fill="#6F7E81"/>
<path transform="translate(316,600)" d="m0 0 5 2 1 2-2 1-3 4-2-1 1-3z" fill="#8B9694"/>
<path transform="translate(336,584)" d="m0 0h1v9l-6-2 2-3z" fill="#627174"/>
<path transform="translate(603,576)" d="m0 0h5l-2 3-6 2v-2l-3-1v-1z" fill="#DEE0CE"/>
<path transform="translate(327,576)" d="m0 0h6l2 5-4-1-2 1-3-3z" fill="#758386"/>
<path transform="translate(450,558)" d="m0 0h2l2 4 3 2-8 1-1-6z" fill="#828D8E"/>
<path transform="translate(247,1015)" d="m0 0 2 1v5l-1 2h-2v-2l-4-1h2l1-3h2z" fill="#C8C9B8"/>
<path transform="translate(642,864)" d="m0 0 7 3 1 3h-3l-7-3v-2z" fill="#849090"/>
<path transform="translate(780,687)" d="m0 0h2l-2 9-2 3-3-1 4-8z" fill="#D5D9C8"/>
<path transform="translate(325,643)" d="m0 0 4 3-4 3-4-1-3-2 4-1h2z" fill="#6C7C81"/>
<path transform="translate(619,546)" d="m0 0 5 1 1 4-3 1-2 2z" fill="#818C8D"/>
<path transform="translate(627,536)" d="m0 0h2l-1 4-5 5v-6z" fill="#6D7D81"/>
<path transform="translate(386,320)" d="m0 0h2v6l-4 2-3-2 1-3h2 1z" fill="#879393"/>
<path transform="translate(319,691)" d="m0 0 4 2v4l-4-1zm-1 6h2l1 5-3 1z" fill="#738185"/>
<path transform="translate(327,647)" d="m0 0 3 1v2l-4 2h-3-4v-2h4v-2z" fill="#7D898B"/>
<path transform="translate(318,607)" d="m0 0 5 1 1 6-4-1v-3l-4-1z" fill="#859090"/>
<path transform="translate(328,571)" d="m0 0 4 1-2 1 5 3 1 2-7-1-2-2v-3z" fill="#7D898B"/>
<path transform="translate(333,543)" d="m0 0h2l-1 5-3-1-1 2-3-2 1-3z" fill="#AEB3A9"/>
<path transform="translate(333,313)" d="m0 0h2l2 4-2 4h-3v-7z" fill="#A4AAA2"/>
<path transform="translate(375,295)" d="m0 0v3l-6 7h-2l2-5z" fill="#D8DCCB"/>
<path transform="translate(535,285)" d="m0 0 5 2 2 1v3l-5-1-3-3z" fill="#D0D2C1"/>
<path transform="translate(234,245)" d="m0 0 3 1 4 8-5-2-2-3z" fill="#DDE0CE"/>
</svg>
